<?xml version="1.0" encoding="utf-8"?>
<!-- Generator: Adobe Illustrator 22.1.0, SVG Export Plug-In . SVG Version: 6.00 Build 0)  -->
<svg version="1.1" id="Livello_1" xmlns="http://www.w3.org/2000/svg" xmlns:xlink="http://www.w3.org/1999/xlink" x="0px" y="0px"
	 viewBox="0 0 467.9 193.3" style="enable-background:new 0 0 467.9 193.3;" xml:space="preserve">
<style type="text/css">
	.st0{fill:#232F84;}
	.st1{enable-background:new    ;}
	.st2{fill:#5958B4;}
	.st3{fill:#5958B4;stroke:#5958B4;stroke-miterlimit:10;}
</style>
<path class="st0" d="M134.6,120.7h-8.4l-3-2.9c10.4-12.1,16.6-27.8,16.6-44.8c0-38.1-30.8-68.9-68.9-68.9S2,34.9,2,73
	s30.8,68.9,68.9,68.9c17.1,0,32.8-6.3,44.8-16.6l2.9,3v8.4l53,52.9l15.8-15.8L134.6,120.7z M71,120.7c-26.4,0-47.7-21.3-47.7-47.7
	S44.6,25.3,71,25.3s47.7,21.3,47.7,47.7S97.4,120.7,71,120.7z"/>
<g class="st1">
	<path class="st2" d="M176.7,59.5c0.4,0.2,0.9,0.4,1.5,0.7c0.6,0.2,1.3,0.4,1.9,0.6c0.7,0.2,1.3,0.2,1.9,0.2c0.8,0,1.4-0.1,1.9-0.3
		s0.9-0.4,1.1-0.7c0.3-0.3,0.4-0.7,0.4-1.1c0-0.4-0.2-0.7-0.6-1.1c-0.4-0.3-0.9-0.7-1.5-1s-1.2-0.7-1.8-1.1
		c-0.7-0.5-1.5-0.9-2.3-1.4s-1.5-1-2.2-1.6s-1.2-1.3-1.6-2s-0.6-1.5-0.6-2.4c0-1.2,0.3-2.2,1-3.2c0.6-0.9,1.6-1.7,2.8-2.2
		c1.2-0.5,2.6-0.8,4.3-0.8c1.1,0,2.3,0.2,3.4,0.5s2.2,0.7,3,1.2l-1.6,3.7c-0.6-0.3-1.2-0.5-1.7-0.6s-1-0.3-1.5-0.4s-1-0.1-1.6-0.1
		c-0.8,0-1.5,0.2-2,0.5s-0.8,0.8-0.8,1.4c0,0.4,0.2,0.8,0.5,1.1c0.4,0.3,0.8,0.6,1.4,1c0.6,0.3,1.2,0.7,1.8,1.1
		c0.8,0.5,1.6,0.9,2.4,1.4s1.5,1,2.2,1.6s1.2,1.2,1.6,2c0.4,0.7,0.6,1.5,0.6,2.5c0,1.2-0.3,2.3-1,3.3s-1.7,1.7-3,2.3
		s-2.8,0.8-4.6,0.8c-0.5,0-1.1,0-1.7-0.1s-1.3-0.2-1.9-0.4s-1.3-0.4-1.8-0.6c-0.6-0.2-1.1-0.4-1.5-0.7L176.7,59.5z"/>
	<path class="st2" d="M203.9,65.4c-2.3,0-4.4-0.5-6-1.5c-1.7-1-3-2.4-3.9-4.2s-1.3-3.7-1.3-5.8c0-2.3,0.5-4.3,1.4-6.1
		c1-1.8,2.3-3.1,4-4.1s3.6-1.5,5.8-1.5c2.4,0,4.4,0.5,6.1,1.5s3,2.4,3.8,4.2c0.9,1.7,1.3,3.7,1.3,5.8c0,2.3-0.5,4.3-1.4,6.1
		c-1,1.8-2.3,3.1-4,4.1C208,64.8,206.1,65.3,203.9,65.4z M203.8,61.1c1.1,0,2.1-0.3,3-0.8s1.6-1.4,2.2-2.5s0.8-2.5,0.8-4.2
		c0-1.4-0.2-2.6-0.7-3.7c-0.5-1.1-1.1-1.9-2-2.5s-1.9-0.9-3.2-0.9c-1.1,0-2,0.3-3,0.9c-0.9,0.6-1.7,1.5-2.2,2.6s-0.8,2.4-0.8,3.9
		c0,1.4,0.2,2.6,0.7,3.7c0.5,1.1,1.1,2,2,2.6C201.5,60.7,202.6,61.1,203.8,61.1z"/>
	<path class="st2" d="M227.1,42.6c1.7,0,3.2,0.3,4.5,0.8c1.4,0.5,2.4,1.3,3.3,2.4c0.8,1.1,1.2,2.4,1.2,4.1c0,1.4-0.3,2.5-1,3.5
		s-1.4,1.8-2.4,2.3l5.2,9.2h-5.8l-4.1-7.7c-0.4,0-0.7,0-1,0s-0.7,0-1,0h-2v7.7h-5.1V42.6H227.1z M224,46.7V53h3
		c0.7,0,1.4-0.1,1.9-0.4c0.6-0.2,1-0.6,1.3-1.1s0.5-1,0.5-1.7s-0.2-1.4-0.5-1.8c-0.3-0.5-0.7-0.8-1.3-1.1c-0.6-0.2-1.3-0.3-2.1-0.3
		H224V46.7z"/>
	<path class="st2" d="M249.1,42.6c1.7,0,3.2,0.3,4.5,0.8c1.4,0.5,2.4,1.3,3.3,2.4c0.8,1.1,1.2,2.4,1.2,4.1c0,1.4-0.3,2.5-1,3.5
		s-1.4,1.8-2.4,2.3l5.2,9.2h-5.8l-4.1-7.7c-0.4,0-0.7,0-1,0s-0.7,0-1,0h-2v7.7h-5.1V42.6H249.1z M246,46.7V53h3
		c0.7,0,1.4-0.1,1.9-0.4c0.6-0.2,1-0.6,1.3-1.1s0.5-1,0.5-1.7s-0.2-1.4-0.5-1.8c-0.3-0.5-0.7-0.8-1.3-1.1c-0.6-0.2-1.3-0.3-2.1-0.3
		H246V46.7z"/>
	<path class="st2" d="M267.8,64.9v-8.7l-7.2-12.6l5-1.4l4.7,9.1l5-8.7h5.4l-7.8,13.7v8.6L267.8,64.9L267.8,64.9z"/>
</g>
<g class="st1">
	<path class="st2" d="M176.6,104.3V82h8.2c1.7,0,3.2,0.3,4.5,0.8c1.4,0.5,2.4,1.4,3.3,2.5c0.8,1.1,1.2,2.6,1.2,4.3
		c0,1.3-0.3,2.4-0.8,3.4s-1.2,1.8-2.1,2.4s-1.9,1.1-3,1.4s-2.3,0.5-3.4,0.5h-2.8v7.1L176.6,104.3L176.6,104.3z M181.7,86.1v7h3
		c0.7,0,1.4-0.1,1.9-0.4c0.6-0.3,1-0.7,1.3-1.2s0.5-1.1,0.5-1.8c0-0.8-0.2-1.5-0.5-2s-0.7-0.9-1.3-1.2c-0.6-0.3-1.3-0.4-2.1-0.4
		H181.7z"/>
	<path class="st2" d="M208.3,82l8.5,22.1l-5.1,0.6l-1.8-5.2h-8.1l-1.7,4.8H195l8.5-22.3H208.3z M205.8,88.5l-2.5,6.9h5.1L205.8,88.5
		z"/>
	<path class="st2" d="M228.5,91.8h8.4v11.4c-0.6,0.3-1.3,0.6-2.1,0.8c-0.8,0.3-1.7,0.4-2.6,0.6c-0.9,0.1-1.8,0.2-2.6,0.2
		c-2.4,0-4.4-0.5-6.1-1.4c-1.7-1-3.1-2.3-4-4s-1.4-3.7-1.4-6c0-1.8,0.3-3.4,0.9-4.8s1.5-2.7,2.5-3.7c1.1-1,2.4-1.8,3.8-2.4
		c1.4-0.5,3-0.8,4.6-0.8c0.6,0,1.3,0.1,2.1,0.2c0.8,0.1,1.6,0.3,2.4,0.5s1.5,0.5,2.2,0.9l-1.6,3.5c-0.7-0.2-1.4-0.4-1.9-0.6
		s-1.1-0.2-1.5-0.3c-0.5-0.1-1-0.1-1.6-0.1c-0.8,0-1.6,0.2-2.4,0.5s-1.5,0.8-2.1,1.4s-1.1,1.4-1.5,2.3s-0.6,2-0.6,3.3
		c0,1.6,0.3,2.9,0.9,4s1.3,1.9,2.3,2.4s2,0.8,3.1,0.8c0.5,0,1,0,1.4-0.1s0.9-0.1,1.2-0.2v-4.6H228L228.5,91.8z"/>
	<path class="st2" d="M241.1,104.3V82h14.1l0.6,4h-9.6v5h7.1l0.6,4h-7.7v5.2h10.2l0.7,4L241.1,104.3L241.1,104.3z"/>
	<path class="st2" d="M267.7,104.3V82h4.9l7.9,11.3l1.5,2.2V82h5.1v22.3h-4.9L274,92.8l-1.3-1.8v13.3H267.7z"/>
	<path class="st2" d="M302.3,104.8c-2.3,0-4.4-0.5-6-1.5c-1.7-1-3-2.4-3.9-4.2s-1.3-3.7-1.3-5.8c0-2.3,0.5-4.3,1.4-6.1
		c1-1.8,2.3-3.1,4-4.1s3.6-1.5,5.8-1.5c2.4,0,4.4,0.5,6.1,1.5c1.7,1,3,2.4,3.8,4.2c0.9,1.7,1.3,3.7,1.3,5.8c0,2.3-0.5,4.3-1.4,6.1
		c-1,1.8-2.3,3.1-4,4.1C306.4,104.2,304.5,104.7,302.3,104.8z M302.2,100.5c1.1,0,2.1-0.3,3-0.8s1.6-1.4,2.2-2.5s0.8-2.5,0.8-4.2
		c0-1.4-0.2-2.6-0.7-3.7s-1.1-1.9-2-2.5s-1.9-0.9-3.2-0.9c-1.1,0-2,0.3-3,0.9c-0.9,0.6-1.7,1.5-2.2,2.6s-0.8,2.4-0.8,3.9
		c0,1.4,0.2,2.6,0.7,3.7s1.1,2,2,2.6C299.9,100.1,301,100.5,302.2,100.5z"/>
	<path class="st2" d="M334.1,86h-7.4v18.3h-5.1V86h-6.7v-4h18.6L334.1,86z"/>
	<path class="st2" d="M357,95.4h-7.5v8.9h-5.1V82H358l0.6,4h-9.1v5.4h6.9L357,95.4z"/>
	<path class="st2" d="M371.6,104.8c-2.3,0-4.4-0.5-6-1.5c-1.7-1-3-2.4-3.9-4.2s-1.3-3.7-1.3-5.8c0-2.3,0.5-4.3,1.4-6.1
		c1-1.8,2.3-3.1,4-4.1s3.6-1.5,5.8-1.5c2.4,0,4.4,0.5,6.1,1.5c1.7,1,3,2.4,3.8,4.2c0.9,1.7,1.3,3.7,1.3,5.8c0,2.3-0.5,4.3-1.4,6.1
		c-1,1.8-2.3,3.1-4,4.1C375.7,104.2,373.8,104.7,371.6,104.8z M371.5,100.5c1.1,0,2.1-0.3,3-0.8s1.6-1.4,2.2-2.5s0.8-2.5,0.8-4.2
		c0-1.4-0.2-2.6-0.7-3.7s-1.1-1.9-2-2.5s-1.9-0.9-3.2-0.9c-1.1,0-2,0.3-3,0.9c-0.9,0.6-1.7,1.5-2.2,2.6s-0.8,2.4-0.8,3.9
		c0,1.4,0.2,2.6,0.7,3.7s1.1,2,2,2.6C369.2,100.1,370.3,100.5,371.5,100.5z"/>
	<path class="st2" d="M391.4,95.7c0,1.1,0.2,2,0.6,2.7c0.4,0.7,0.9,1.2,1.6,1.6c0.7,0.3,1.4,0.5,2.3,0.5c0.9,0,1.6-0.2,2.3-0.5
		c0.7-0.4,1.2-0.9,1.6-1.6c0.4-0.7,0.6-1.6,0.6-2.6V82h5.2v14c0,1.8-0.4,3.3-1.2,4.6c-0.8,1.3-1.9,2.3-3.3,3
		c-1.4,0.7-3.1,1.1-5.1,1.1c-1.9,0-3.6-0.4-5-1.1s-2.6-1.7-3.4-3.1s-1.2-2.9-1.2-4.6v-14h5.2v13.8H391.4z"/>
	<path class="st2" d="M410.5,104.3V82h4.9l7.9,11.3l1.5,2.2V82h5.1v22.3H425l-8.2-11.5l-1.3-1.8v13.3H410.5z"/>
	<path class="st2" d="M435.4,104.3V82h9.3c2.3,0,4.2,0.5,5.8,1.4c1.5,1,2.7,2.3,3.5,3.9c0.8,1.7,1.2,3.5,1.2,5.7
		c0,2.3-0.4,4.3-1.3,6c-0.9,1.7-2.1,3-3.6,3.9c-1.6,0.9-3.4,1.4-5.6,1.4H435.4z M440.6,86.1v14h3.9c1.1,0,2-0.2,2.8-0.7
		s1.4-1.3,1.9-2.3c0.5-1.1,0.7-2.4,0.7-4.1c0-1.4-0.2-2.6-0.6-3.6c-0.4-1-1-1.8-1.7-2.4c-0.8-0.6-1.7-0.9-2.9-0.9H440.6z"/>
	<path class="st2" d="M461.9,99.7c0.5,0.5,0.8,1.2,0.8,1.9c0,0.8-0.3,1.4-0.8,1.9s-1.2,0.8-1.9,0.8c-0.8,0-1.4-0.3-1.9-0.8
		s-0.8-1.2-0.8-1.9c0-0.8,0.3-1.4,0.8-1.9s1.2-0.8,1.9-0.8C460.7,98.9,461.4,99.1,461.9,99.7z M457.3,81.1h5.2l-0.6,16.6l-4.1-1.4
		L457.3,81.1z"/>
</g>
<path class="st3" d="M55.6,51.7l-1.9-1.9l-7.5,7.5l-7.5-7.5l-1.9,1.9l7.5,7.5l-7.5,7.5l1.9,1.9l7.5-7.5l7.5,7.5l1.9-1.9l-7.5-7.5
	L55.6,51.7z"/>
<path class="st3" d="M105.8,52.7l-1.9-1.9l-7.5,7.5l-7.5-7.5L87,52.7l7.5,7.5L87,67.7l1.9,1.9l7.5-7.5l7.5,7.5l1.9-1.9l-7.5-7.5
	L105.8,52.7z"/>
<path class="st2" d="M60.9,105.6l10.4-10.4l10.4,10.4l3.2-3.2L71.3,88.8l-13.6,13.6L60.9,105.6z"/>
</svg>
