<?xml version="1.0" encoding="utf-8"?>
<!-- Generator: Adobe Illustrator 22.1.0, SVG Export Plug-In . SVG Version: 6.00 Build 0)  -->
<svg version="1.1" id="Livello_1" xmlns="http://www.w3.org/2000/svg" xmlns:xlink="http://www.w3.org/1999/xlink" x="0px" y="0px"
	 viewBox="0 0 23.1 23.1" style="enable-background:new 0 0 23.1 23.1;" xml:space="preserve">
<style type="text/css">
	.st0{fill:#232F84;}
</style>
<path id="Path_234" class="st0" d="M11.5,2c1.5-0.1,3.1,0,4.6,0.1c0.7,0,1.5,0.1,2.2,0.4c1,0.4,1.7,1.2,2.2,2.2
	c0.3,0.7,0.4,1.4,0.4,2.2c0,1.2,0.1,1.5,0.1,4.6c0.1,1.5,0,3.1-0.1,4.6c0,0.7-0.1,1.5-0.4,2.2c-0.4,1-1.2,1.7-2.2,2.2
	c-0.7,0.3-1.4,0.4-2.2,0.4c-1.2,0-1.5,0.1-4.6,0.1c-1.5,0.1-3.1,0-4.6-0.1c-0.7,0-1.5-0.1-2.2-0.4c-1-0.4-1.7-1.2-2.2-2.2
	c-0.3-0.7-0.4-1.4-0.4-2.2C2.2,15,2,14.6,2,11.5C2,10,2,8.4,2.2,6.9c0-0.7,0.1-1.5,0.4-2.2c0.2-0.5,0.5-0.9,0.9-1.3
	C3.8,3,4.2,2.7,4.7,2.6c0.7-0.3,1.4-0.4,2.2-0.4C8.5,2,10,2,11.5,2 M11.5,0C9.9-0.1,8.4,0,6.8,0.1c-1,0-1.9,0.2-2.8,0.5
	c-0.8,0.3-1.5,0.7-2,1.3c-0.6,0.6-1,1.3-1.3,2C0.2,4.9,0.1,5.8,0.1,6.8C0,8.4-0.1,9.9,0,11.5c-0.1,1.6,0,3.2,0.1,4.7
	c0,1,0.2,1.9,0.5,2.8c0.3,0.8,0.7,1.5,1.3,2c0.6,0.6,1.3,1,2,1.3c0.9,0.3,1.9,0.5,2.8,0.5c1.6,0.1,3.2,0.2,4.7,0.1
	c1.6,0.1,3.2,0,4.7-0.1c1,0,1.9-0.2,2.8-0.5c1.6-0.5,2.8-1.8,3.3-3.3c0.3-0.9,0.5-1.9,0.5-2.8c0-1.3,0.1-1.7,0.1-4.7
	c0.1-1.6,0-3.2-0.1-4.7c0-1-0.2-1.9-0.5-2.8c-0.3-0.8-0.7-1.5-1.3-2c-0.6-0.6-1.3-1-2-1.3c-0.9-0.3-1.9-0.5-2.8-0.5
	C14.7,0,13.1-0.1,11.5,0 M11.5,5.6c-3.2-0.1-5.8,2.5-5.9,5.7c0,0.1,0,0.1,0,0.2c0,3.3,2.6,5.9,5.9,5.9s5.9-2.6,5.9-5.9
	S14.8,5.6,11.5,5.6L11.5,5.6 M11.5,15.4c-2.1,0-3.8-1.6-3.8-3.7c0,0,0-0.1,0-0.1c0-2.1,1.6-3.8,3.7-3.8c0,0,0.1,0,0.1,0
	c2.1,0,3.8,1.6,3.8,3.7c0,0,0,0.1,0,0.1c0,2.1-1.6,3.8-3.7,3.8C11.6,15.4,11.6,15.4,11.5,15.4 M17.7,4c-0.8,0-1.4,0.6-1.4,1.4
	s0.6,1.4,1.4,1.4c0.8,0,1.4-0.6,1.4-1.4C19.1,4.6,18.5,4,17.7,4"/>
</svg>
