<?xml version="1.0" encoding="utf-8"?>
<!-- Generator: Adobe Illustrator 22.1.0, SVG Export Plug-In . SVG Version: 6.00 Build 0)  -->
<svg version="1.1" id="Livello_1" xmlns="http://www.w3.org/2000/svg" xmlns:xlink="http://www.w3.org/1999/xlink" x="0px" y="0px"
	 viewBox="0 0 725.5 192.9" style="enable-background:new 0 0 725.5 192.9;" xml:space="preserve">
<style type="text/css">
	.st0{enable-background:new    ;}
	.st1{fill:#1C1B52;}
	.st2{fill:#2D3482;}
	.st3{fill:#FFFFFF;}
</style>
<g>
	<g class="st0">
		<path class="st1" d="M217.3,53.8v29h33.5v-29h11.4v69.8h-11.4v-30h-33.5v30h-11.4V53.8L217.3,53.8L217.3,53.8z"/>
		<path class="st1" d="M318.3,73.8l-29.2,70.3h-11.5l10.1-24.6l-20-45.7h11.7l14,32.7l13.3-32.7L318.3,73.8L318.3,73.8z"/>
		<path class="st1" d="M350.9,72.8c14.2,0,24.6,11.9,24.6,25.8c0,13.5-10.7,26-24.6,26c-6.9,0-12.5-3-16.5-8.6v28.1h-10.8V73.8h10.8
			v7.8C338.4,75.9,344,72.8,350.9,72.8z M349.3,83.1c-8.7,0-15.4,7-15.4,15.6s6.7,15.7,15.4,15.7c8.8,0,15.5-7.1,15.5-15.7
			C364.8,90,358,83.1,349.3,83.1z"/>
		<path class="st1" d="M381.4,98.8c0-14.3,11.3-26,25.7-26s25.7,11.6,25.7,26c0,1.7-0.1,3.3-0.3,5h-39.7c1.6,6.9,7.9,11.1,14.8,11.1
			c5.4,0,10.2-2.2,13.8-6.2l7.5,6.6C412.4,133.2,381.4,124.1,381.4,98.8z M421.4,94.3c-3.6-15.1-25.6-15-28.6,0H421.4z"/>
		<path class="st1" d="M451.4,84.5c1.9-10.2,8.9-10.7,17.7-10.7v10.1h-6.7c-8,0-11,5.7-11,13v26.8h-10.8V73.8h10.8L451.4,84.5
			L451.4,84.5z"/>
	</g>
	<g class="st0">
		<path class="st2" d="M488.3,82.3c2.1-6.2,7.1-9.4,13.5-9.4c6.3,0,11.2,3.2,13.8,8.9c3.5-6.1,9.3-8.9,16.2-8.9
			c13.2,0,17.7,11.3,17.7,22.8v28h-10.8V95.8c0-6.6-2.5-12.6-9.9-12.6c-7.2,0-9.9,6.4-9.9,12.7v27.9h-10.8V95.9
			c0-6.5-2.5-12.6-9.9-12.6c-7.2,0-9.9,6.4-9.9,12.7v27.9h-10.8V74h10.8L488.3,82.3L488.3,82.3z"/>
		<path class="st2" d="M557,98.8c0-14.5,11.8-26.1,26.3-26.1s26.2,11.5,26.2,26.1s-11.7,25.9-26.2,25.9
			C568.7,124.7,557,113.5,557,98.8z M583.3,114.4c8.7,0,15.4-7,15.4-15.6s-6.7-15.7-15.4-15.7c-8.8,0-15.5,7.1-15.5,15.7
			C567.8,107.5,574.5,114.4,583.3,114.4z"/>
		<path class="st2" d="M615.3,98.8c0-14.5,11.8-26.1,26.3-26.1s26.2,11.5,26.2,26.1s-11.7,25.9-26.2,25.9
			C627,124.7,615.3,113.5,615.3,98.8z M641.6,114.4c8.7,0,15.4-7,15.4-15.6s-6.7-15.7-15.4-15.7c-8.8,0-15.5,7.1-15.5,15.7
			C626.1,107.5,632.8,114.4,641.6,114.4z"/>
		<path class="st2" d="M698.2,124.7c-14.2,0-24.6-11.9-24.6-25.8c0-13.5,10.7-26,24.6-26c6.9,0,12.6,3,16.5,8.7V53.9h10.8v69.8
			h-10.8V116C710.7,121.6,705.1,124.7,698.2,124.7z M699.9,114.4c8.7,0,15.4-7,15.4-15.6s-6.7-15.7-15.4-15.7
			c-8.8,0-15.5,7.1-15.5,15.7C684.4,107.5,691.1,114.4,699.9,114.4z"/>
	</g>
	<g>
		<circle class="st2" cx="96.8" cy="96" r="91.8"/>
		<path class="st3" d="M56.7,150.8h-1.9c-6.8,0-12.4-5.6-12.4-12.4V53.6c0-6.8,5.6-12.4,12.4-12.4h1.9c6.8,0,12.4,5.6,12.4,12.4
			v84.8C69.1,145.2,63.5,150.8,56.7,150.8z"/>
		<path class="st3" d="M103,150.8h-5.8c-5.8,0-10.5-4.7-10.5-10.5V83.2c0-5.8,4.7-10.5,10.5-10.5h5.8c5.8,0,10.5,4.7,10.5,10.5v57.1
			C113.4,146.1,108.7,150.8,103,150.8z"/>
		<path class="st3" d="M96.5,120H62.6c-3.8,0-6.8-3.1-6.8-6.8l0,0c0-3.8,3.1-6.8,6.8-6.8h33.9c3.8,0,6.8,3.1,6.8,6.8l0,0
			C103.3,116.9,100.2,120,96.5,120z"/>
		<circle class="st3" cx="140.6" cy="132.7" r="17.1"/>
	</g>
</g>
</svg>
