<?xml version="1.0" encoding="utf-8"?>
<!-- Generator: Adobe Illustrator 22.1.0, SVG Export Plug-In . SVG Version: 6.00 Build 0)  -->
<svg version="1.1" id="Livello_1" xmlns="http://www.w3.org/2000/svg" xmlns:xlink="http://www.w3.org/1999/xlink" x="0px" y="0px"
	 viewBox="0 0 519.6 90.3" style="enable-background:new 0 0 519.6 90.3;" xml:space="preserve">
<style type="text/css">
	.st0{enable-background:new    ;}
	.st1{fill:#1C1B52;}
	.st2{fill:#2D3482;}
</style>
<g class="st0">
	<path class="st1" d="M11.4,0v29h33.5V0h11.4v69.8H44.9v-30H11.4v30H0V0L11.4,0L11.4,0z"/>
	<path class="st1" d="M112.3,20L83.1,90.3H71.6l10.1-24.6L61.7,20h11.7l14,32.7L100.7,20H112.3L112.3,20z"/>
	<path class="st1" d="M145,19c14.2,0,24.6,11.9,24.6,25.8c0,13.5-10.7,26-24.6,26c-6.9,0-12.5-3-16.5-8.6v28.1h-10.8V20h10.8v7.8
		C132.5,22.1,138.1,19,145,19z M143.3,29.3c-8.7,0-15.4,7-15.4,15.6s6.7,15.7,15.4,15.7c8.8,0,15.5-7.1,15.5-15.7
		C158.8,36.2,152.1,29.3,143.3,29.3z"/>
	<path class="st1" d="M175.5,45c0-14.3,11.3-26,25.7-26s25.7,11.6,25.7,26c0,1.7-0.1,3.3-0.3,5h-39.7c1.6,6.9,7.9,11.1,14.8,11.1
		c5.4,0,10.2-2.2,13.8-6.2l7.5,6.6C206.5,79.4,175.5,70.3,175.5,45z M215.5,40.5c-3.6-15.1-25.6-15-28.6,0H215.5z"/>
	<path class="st1" d="M245.5,30.7c1.9-10.2,8.9-10.7,17.7-10.7v10.1h-6.7c-8,0-11,5.7-11,13v26.8h-10.8V20h10.8V30.7L245.5,30.7z"/>
</g>
<g class="st0">
	<path class="st2" d="M282.3,28.5c2.1-6.2,7.1-9.4,13.5-9.4c6.3,0,11.2,3.2,13.8,8.9c3.5-6.1,9.3-8.9,16.2-8.9
		c13.2,0,17.7,11.3,17.7,22.8v28h-10.7V42c0-6.6-2.5-12.6-9.9-12.6c-7.2,0-9.9,6.4-9.9,12.7V70h-10.8V42.1c0-6.5-2.5-12.6-9.9-12.6
		c-7.2,0-9.9,6.4-9.9,12.7v27.9h-10.8V20.2h10.8L282.3,28.5L282.3,28.5z"/>
	<path class="st2" d="M351.1,45c0-14.5,11.8-26.1,26.3-26.1s26.2,11.5,26.2,26.1s-11.7,25.9-26.2,25.9
		C362.8,70.9,351.1,59.7,351.1,45z M377.3,60.6c8.7,0,15.4-7,15.4-15.6s-6.7-15.7-15.4-15.7c-8.8,0-15.5,7.1-15.5,15.7
		C361.8,53.7,368.6,60.6,377.3,60.6z"/>
	<path class="st2" d="M409.3,45c0-14.5,11.8-26.1,26.3-26.1s26.2,11.5,26.2,26.1s-11.7,25.9-26.2,25.9S409.3,59.7,409.3,45z
		 M435.6,60.6c8.7,0,15.4-7,15.4-15.6s-6.7-15.7-15.4-15.7c-8.8,0-15.5,7.1-15.5,15.7C420.1,53.7,426.8,60.6,435.6,60.6z"/>
	<path class="st2" d="M492.3,70.9c-14.2,0-24.6-11.9-24.6-25.8c0-13.5,10.7-26,24.6-26c6.9,0,12.6,3,16.5,8.7V0.1h10.8v69.8h-10.8
		v-7.7C504.8,67.8,499.1,70.9,492.3,70.9z M494,60.6c8.7,0,15.4-7,15.4-15.6s-6.7-15.7-15.4-15.7c-8.8,0-15.5,7.1-15.5,15.7
		C478.5,53.7,485.1,60.6,494,60.6z"/>
</g>
</svg>
