<?xml version="1.0" encoding="utf-8"?>
<!-- Generator: Adobe Illustrator 22.1.0, SVG Export Plug-In . SVG Version: 6.00 Build 0)  -->
<svg version="1.1" id="Livello_1" xmlns="http://www.w3.org/2000/svg" xmlns:xlink="http://www.w3.org/1999/xlink" x="0px" y="0px"
	 viewBox="0 0 23.1 18.7" style="enable-background:new 0 0 23.1 18.7;" xml:space="preserve">
<style type="text/css">
	.st0{fill:#232F84;}
</style>
<path id="Path_233" class="st0" d="M7.3,18.7c7.4,0.1,13.4-5.8,13.5-13.2c0-0.1,0-0.2,0-0.2V4.6c0.9-0.7,1.7-1.5,2.3-2.4
	c-0.9,0.4-1.8,0.6-2.7,0.8c1-0.6,1.7-1.5,2-2.6c-0.9,0.5-1.9,0.9-2.9,1.2C18.6,0.5,17.3,0,16,0c-2.6,0-4.7,2.1-4.7,4.7
	c0,0.3,0,0.7,0.1,1c-3.8-0.2-7.4-2-9.7-5C1.2,1.5,1,2.3,1,3.2c0,1.6,0.8,3,2,4c-0.8,0-1.5-0.2-2.2-0.6l0,0c0,2.3,1.6,4.2,3.8,4.6
	c-0.4,0.1-0.8,0.2-1.3,0.1c-0.3,0-0.6,0-0.9-0.1C3.2,13.1,5,14.4,7,14.5c-1.7,1.3-3.8,2-5.9,2c-0.4,0-0.8,0-1.1-0.1
	C2.1,17.9,4.7,18.7,7.3,18.7"/>
</svg>
