<?xml version="1.0" encoding="utf-8"?>
<!-- Generator: Adobe Illustrator 22.1.0, SVG Export Plug-In . SVG Version: 6.00 Build 0)  -->
<svg version="1.1" id="Livello_1" xmlns="http://www.w3.org/2000/svg" xmlns:xlink="http://www.w3.org/1999/xlink" x="0px" y="0px"
	 viewBox="0 0 841.9 595.3" style="enable-background:new 0 0 841.9 595.3;" xml:space="preserve">
<style type="text/css">
	.st0{fill:#0B2F42;}
	.st1{font-family:'Kontora-Bold';}
	.st2{font-size:99.7502px;}
	.st3{fill:#4EBED0;}
	.st4{fill:#FFFFFF;}
</style>
<text transform="matrix(1 0 0 1 236.38 417.1108)"><tspan x="0" y="0" class="st0 st1 st2">Hyper</tspan><tspan x="267.6" y="0" class="st3 st1 st2">mood</tspan></text>
<g>
	<circle class="st3" cx="132.6" cy="389.4" r="91.8"/>
	<path class="st4" d="M92.5,444.2h-1.9c-6.8,0-12.4-5.6-12.4-12.4V347c0-6.8,5.6-12.4,12.4-12.4h1.9c6.8,0,12.4,5.6,12.4,12.4v84.8
		C104.9,438.6,99.3,444.2,92.5,444.2z"/>
	<path class="st4" d="M138.8,444.2H133c-5.8,0-10.5-4.7-10.5-10.5v-57.1c0-5.8,4.7-10.5,10.5-10.5h5.8c5.8,0,10.5,4.7,10.5,10.5
		v57.1C149.2,439.5,144.5,444.2,138.8,444.2z"/>
	<path class="st4" d="M132.3,413.4H98.4c-3.8,0-6.8-3.1-6.8-6.8l0,0c0-3.8,3.1-6.8,6.8-6.8h33.9c3.8,0,6.8,3.1,6.8,6.8l0,0
		C139.1,410.3,136,413.4,132.3,413.4z"/>
	<circle class="st4" cx="176.4" cy="426.1" r="17.1"/>
</g>
</svg>
